<svg width="697" height="697" viewBox="0 0 697 697" fill="none" xmlns="http://www.w3.org/2000/svg">
<path d="M697 348.5C697 540.971 540.971 697 348.5 697C156.029 697 0 540.971 0 348.5C0 156.029 156.029 0 348.5 0C540.971 0 697 156.029 697 348.5Z" fill="#8CD6EE"/>
<path fill-rule="evenodd" clip-rule="evenodd" d="M393.679 630.998C384.253 635.403 372.984 637.965 360.878 637.965C327.748 637.965 300.891 618.781 300.891 595.116C300.891 571.931 326.672 553.046 358.874 552.291C362.835 532.722 380.132 517.989 400.87 517.989C421.735 517.989 439.116 532.902 442.937 552.65C472.388 555.559 495.137 574.742 495.137 597.973C495.137 623.215 468.279 643.678 435.149 643.678C419.061 643.678 404.452 638.852 393.679 630.998Z" fill="white"/>
<path fill-rule="evenodd" clip-rule="evenodd" d="M595.083 296.246C588.799 299.183 581.286 300.891 573.216 300.891C551.129 300.891 533.224 288.101 533.224 272.325C533.224 256.868 550.411 244.279 571.88 243.775C574.52 230.729 586.052 220.907 599.877 220.907C613.787 220.907 625.374 230.849 627.922 244.014C647.556 245.953 662.721 258.742 662.721 274.23C662.721 291.058 644.816 304.699 622.729 304.699C612.004 304.699 602.265 301.483 595.083 296.246Z" fill="white"/>
<path fill-rule="evenodd" clip-rule="evenodd" d="M111.373 460.022C105.088 462.959 97.5761 464.667 89.5054 464.667C67.4185 464.667 49.5136 451.877 49.5136 436.101C49.5136 420.644 66.701 408.055 88.1694 407.551C90.81 394.505 102.341 384.683 116.167 384.683C130.076 384.683 141.664 394.625 144.211 407.79C163.845 409.729 179.011 422.518 179.011 438.006C179.011 454.834 161.106 468.475 139.019 468.475C128.294 468.475 118.554 465.259 111.373 460.022Z" fill="white"/>
<path d="M349.289 216.309C421.86 216.309 480.691 275.14 480.691 347.711C480.691 420.282 421.86 479.113 349.289 479.113C276.718 479.113 217.887 420.282 217.887 347.711C217.887 275.14 276.718 216.309 349.289 216.309Z" fill="#F5EF57"/>
<path d="M178.272 196.335L194.431 180.176L248.295 234.039L232.136 250.199L178.272 196.335Z" fill="#F5EF57"/>
<path d="M444.897 462.96L461.056 446.801L514.92 500.665L498.761 516.824L444.897 462.96Z" fill="#F5EF57"/>
<path d="M461.056 252.892L444.897 236.733L498.761 182.869L514.92 199.028L461.056 252.892Z" fill="#F5EF57"/>
<path d="M197.124 516.824L180.965 500.665L234.829 446.801L250.988 462.96L197.124 516.824Z" fill="#F5EF57"/>
<path d="M335.169 121.88H358.022V198.055H335.169V121.88Z" fill="#F5EF57"/>
<path d="M335.169 498.945H358.022V575.12H335.169V498.945Z" fill="#F5EF57"/>
<path d="M495.137 361.831L495.137 338.978L571.312 338.978L571.312 361.831L495.137 361.831Z" fill="#F5EF57"/>
<path d="M121.88 361.831L121.88 338.978L198.055 338.978L198.055 361.831L121.88 361.831Z" fill="#F5EF57"/>
</svg>
