<svg width="512" height="512" viewBox="0 0 512 512" fill="none" xmlns="http://www.w3.org/2000/svg">
<path d="M430.696 256C430.696 177.239 366.848 113.391 288.087 113.391C231.686 113.391 182.938 146.136 159.801 193.649C146.68 187.904 132.196 184.696 116.956 184.696C57.886 184.696 10 232.582 10 291.652C10 350.722 57.886 398.609 116.956 398.609H430.695C470.075 398.609 501.999 366.685 501.999 327.305C501.999 287.925 470.076 256 430.696 256V256Z" fill="#CACACA"/>
<path d="M440.408 246.577C435.526 166.799 369.072 103.391 288.087 103.391C258.921 103.391 230.566 111.649 206.09 127.273C184.883 140.81 167.403 159.292 155.11 181.081C142.862 176.84 130.067 174.695 116.957 174.695C52.466 174.696 0 227.162 0 291.652C0 356.142 52.466 408.609 116.956 408.609H320.34C325.863 408.609 330.34 404.132 330.34 398.609C330.34 393.086 325.863 388.609 320.34 388.609H116.956C63.495 388.609 20 345.114 20 291.652C20 238.19 63.495 194.695 116.956 194.695C130.428 194.695 143.494 197.425 155.79 202.809C155.791 202.809 155.792 202.81 155.793 202.81C180.287 213.55 199.439 234.15 208.34 259.33C209.791 263.435 213.649 266 217.768 266C218.874 266 219.999 265.815 221.101 265.425C226.308 263.585 229.037 257.871 227.197 252.664C217.659 225.681 198.36 203.067 173.461 189.272C197.183 148.393 240.248 123.389 288.087 123.389C358.069 123.389 415.556 177.883 420.363 246.664C408.348 248.192 396.833 252.367 386.599 258.985C381.961 261.984 380.633 268.174 383.632 272.812C385.546 275.771 388.758 277.383 392.038 277.383C393.898 277.383 395.781 276.864 397.459 275.779C407.355 269.38 418.847 265.998 430.695 265.998C464.499 266 492 293.501 492 327.304C492 361.108 464.499 388.609 430.696 388.609H400.34C394.817 388.609 390.34 393.086 390.34 398.609C390.34 404.132 394.817 408.609 400.34 408.609H430.695C475.526 408.609 511.999 372.136 511.999 327.304C512 285.759 480.678 251.392 440.408 246.577V246.577Z" fill="#A4A4A4"/>
<path d="M360.34 408.609C365.863 408.609 370.34 404.132 370.34 398.609C370.34 393.086 365.863 388.609 360.34 388.609C354.817 388.609 350.34 393.086 350.34 398.609C350.34 404.132 354.817 408.609 360.34 408.609Z" fill="#A4A4A4"/>
<rect x="61.666" y="89.5623" width="35.2094" height="513.216" transform="rotate(-45 61.666 89.5623)" fill="#A4A4A4"/>
<rect x="424.564" y="64.6655" width="35.2094" height="513.216" transform="rotate(45 424.564 64.6655)" fill="#A4A4A4"/>
</svg>
