<svg width="697" height="697" viewBox="0 0 697 697" fill="none" xmlns="http://www.w3.org/2000/svg">
<circle cx="348.5" cy="348.5" r="348.5" fill="#F39763"/>
<path d="M219.003 205.672C291.574 205.672 350.404 264.503 350.404 337.074C350.404 409.645 291.574 468.475 219.003 468.475C146.432 468.475 87.6012 409.645 87.6012 337.074C87.6012 264.503 146.432 205.672 219.003 205.672Z" fill="#FBD653"/>
<path fill-rule="evenodd" clip-rule="evenodd" d="M696.523 366.881C686.966 550.808 534.805 697 348.5 697C173.106 697 27.9749 567.431 3.60144 398.788C51.9385 400.685 95.9748 414.111 130.411 435.283C151.98 428.867 175.345 424.916 199.818 423.92C229.002 389.702 281.265 366.9 340.882 366.9C398.769 366.9 449.722 388.397 479.347 420.968C518.35 384.858 577.462 361.831 643.634 361.831C661.893 361.831 679.614 363.584 696.523 366.881Z" fill="#8A8A8A"/>
</svg>
