<svg width="512" height="512" viewBox="0 0 512 512" fill="none" xmlns="http://www.w3.org/2000/svg">
<path d="M386.142 272.732C386.142 206.73 332.637 153.227 266.636 153.227C219.372 153.227 178.522 180.666 159.134 220.482C148.139 215.668 136.001 212.979 123.23 212.979C73.7294 212.979 33.6006 253.108 33.6006 302.609C33.6006 352.109 73.7294 392.238 123.23 392.238H386.143C419.143 392.238 445.895 365.485 445.895 332.486C445.894 299.484 419.142 272.732 386.142 272.732Z" fill="#A0C8FF"/>
<path d="M419.192 153.222C419.192 184.497 402.102 211.777 376.758 226.248C358.639 183.345 316.154 153.222 266.638 153.222C261.39 153.222 256.233 153.558 251.169 154.221C251.159 153.885 251.159 153.559 251.159 153.222C251.159 106.824 288.783 69.2002 335.181 69.2002C381.579 69.2002 419.192 106.824 419.192 153.222Z" fill="#FFCD69"/>
<path d="M481.998 502.001H335.923C324.877 502.001 315.923 493.047 315.923 482.001C315.923 470.955 324.877 462.001 335.923 462.001H481.998C493.044 462.001 501.998 470.955 501.998 482.001C501.998 493.046 493.044 502.001 481.998 502.001Z" fill="#CFD3DF"/>
<path d="M255.925 462.001H176.077C187.123 462.001 196.077 453.047 196.077 442.001C196.077 430.955 187.123 422.001 176.077 422.001H30.0009C18.9549 422.001 10.001 430.955 10.001 442.001C10.001 453.047 18.9549 462.001 30.0009 462.001H109.848C98.8035 462.001 89.8485 470.955 89.8485 482.001C89.8485 493.047 98.8035 502.001 109.848 502.001H255.924C266.968 502.001 275.923 493.047 275.923 482.001C275.923 470.955 266.969 462.001 255.925 462.001Z" fill="#CFD3DF"/>
<path d="M346.075 412.236H256.075C245.029 412.236 236.075 403.282 236.075 392.236C236.075 381.19 245.029 372.236 256.075 372.236H346.075C357.121 372.236 366.075 381.19 366.075 392.236C366.075 403.282 357.121 412.236 346.075 412.236Z" fill="#CFD3DF"/>
<path d="M446.074 412.236H426.074C415.028 412.236 406.074 403.282 406.074 392.236C406.074 381.19 415.028 372.236 426.074 372.236H446.074C457.12 372.236 466.074 381.19 466.074 392.236C466.074 403.282 457.12 412.236 446.074 412.236Z" fill="#CFD3DF"/>
<path d="M123.231 402.241H227.797C231.927 413.878 243.041 422.236 256.075 422.236H346.075C359.11 422.236 370.224 413.877 374.353 402.241H386.138C389.965 402.241 393.751 401.922 397.48 401.311C401.335 413.43 412.694 422.236 426.074 422.236H446.074C462.616 422.236 476.074 408.778 476.074 392.236C476.074 376.732 464.251 363.937 449.148 362.393C453.553 353.12 455.898 342.925 455.898 332.482C455.898 297.301 429.715 268.121 395.809 263.4C395.007 252.068 392.712 240.995 389.002 230.303C413.982 212.81 429.19 184.01 429.19 153.222C429.19 101.378 387.017 59.2002 335.179 59.2002C285.873 59.2002 245.312 97.352 241.459 145.684C204.782 152.888 173.168 175.526 154.448 207.984C144.418 204.662 133.953 202.982 123.228 202.982C68.2914 202.982 23.5977 247.675 23.5977 302.612C23.6007 357.547 68.2944 402.241 123.231 402.241ZM346.075 402.236H256.075C250.575 402.236 246.1 397.772 246.077 392.277C246.077 392.265 246.079 392.253 246.079 392.241C246.079 392.227 246.077 392.214 246.077 392.2C246.097 386.703 250.574 382.236 256.075 382.236H346.075C351.589 382.236 356.075 386.722 356.075 392.236C356.075 397.75 351.589 402.236 346.075 402.236ZM456.074 392.236C456.074 397.75 451.588 402.236 446.074 402.236H426.074C420.56 402.236 416.074 397.75 416.074 392.236C416.074 391.592 416.141 390.964 416.258 390.353C416.268 390.291 416.283 390.231 416.292 390.169C417.247 385.644 421.269 382.236 426.075 382.236H446.075C451.588 382.236 456.074 386.722 456.074 392.236ZM335.181 79.2001C375.992 79.2001 409.192 112.406 409.192 153.222C409.192 176.077 398.542 197.539 380.838 211.466C369.73 190.618 352.392 172.789 331.016 160.516C309.611 148.227 285.457 142.243 261.854 143.21C266.759 107.115 297.761 79.2001 335.181 79.2001ZM123.231 222.982C134.314 222.982 145.041 225.222 155.114 229.64C155.128 229.646 155.142 229.65 155.157 229.656C175.258 238.482 190.976 255.394 198.281 276.062C199.732 280.167 203.591 282.732 207.71 282.732C208.815 282.732 209.94 282.546 211.043 282.158C216.25 280.317 218.979 274.603 217.139 269.396C209.201 246.94 193.326 228.034 172.821 216.217C190.005 187.661 219.125 168.441 252.45 164.14C252.502 164.133 252.554 164.126 252.605 164.119C299.996 157.243 349.395 185.577 367.508 230.025C367.51 230.03 367.512 230.035 367.514 230.04C367.558 230.147 367.598 230.255 367.646 230.362C372.092 240.963 374.803 252.077 375.751 263.509C365.996 264.97 356.656 268.477 348.31 273.874C343.672 276.873 342.343 283.063 345.342 287.701C347.256 290.661 350.469 292.272 353.749 292.272C355.608 292.272 357.491 291.754 359.169 290.669C367.196 285.479 376.516 282.735 386.125 282.732C386.13 282.732 386.134 282.733 386.139 282.733C413.577 282.733 435.899 305.05 435.899 332.483C435.899 343.257 432.412 353.668 426.011 362.238C413.577 362.264 402.897 369.894 398.378 380.716C394.406 381.724 390.308 382.242 386.139 382.242H374.357C370.23 370.6 359.114 362.237 346.076 362.237H256.076C243.038 362.237 231.921 370.6 227.794 382.242H123.231C79.3233 382.242 43.6005 346.521 43.6005 302.613C43.6005 258.704 79.3233 222.982 123.231 222.982Z" fill="black"/>
<path d="M291.214 36.0005C292.471 40.3915 296.474 43.2515 300.823 43.2515C301.734 43.2515 302.661 43.1255 303.58 42.8625C308.89 41.3415 311.962 35.8055 310.442 30.4965L303.788 7.25146C302.267 1.94046 296.725 -1.12954 291.422 0.389463C286.112 1.91046 283.04 7.44646 284.56 12.7555L291.214 36.0005Z" fill="black"/>
<path d="M200.063 89.6844L221.239 101.433C222.776 102.285 224.44 102.691 226.082 102.691C229.598 102.691 233.009 100.833 234.835 97.5414C237.515 92.7124 235.771 86.6254 230.942 83.9454L209.766 72.1964C204.937 69.5184 198.849 71.2594 196.17 76.0894C193.49 80.9184 195.234 87.0054 200.063 89.6844Z" fill="black"/>
<path d="M439.42 222.499L460.596 234.249C462.133 235.102 463.797 235.507 465.439 235.507C468.955 235.507 472.365 233.649 474.192 230.357C476.872 225.528 475.129 219.441 470.299 216.761L449.123 205.011C444.294 202.333 438.208 204.075 435.527 208.904C432.848 213.732 434.591 219.819 439.42 222.499Z" fill="black"/>
<path d="M455.15 128.882C456.061 128.882 456.988 128.756 457.907 128.493L481.151 121.839C486.461 120.318 489.533 114.782 488.013 109.473C486.492 104.163 480.952 101.093 475.647 102.611L452.403 109.265C447.093 110.785 444.021 116.322 445.541 121.631C446.797 126.022 450.8 128.882 455.15 128.882Z" fill="black"/>
<path d="M390.862 52.8763C392.399 53.7293 394.063 54.1343 395.705 54.1343C399.221 54.1343 402.632 52.2763 404.458 48.9843L416.208 27.8073C418.888 22.9783 417.145 16.8913 412.315 14.2113C407.487 11.5323 401.398 13.2753 398.719 18.1043L386.969 39.2813C384.289 44.1093 386.032 50.1963 390.862 52.8763Z" fill="black"/>
<path d="M481.998 452.001H476.074C470.551 452.001 466.074 456.479 466.074 462.001C466.074 467.524 470.551 472.001 476.074 472.001H481.998C487.512 472.001 491.998 476.487 491.998 482.001C491.998 487.515 487.512 492.001 481.998 492.001H335.923C330.409 492.001 325.923 487.515 325.923 482.001C325.923 476.487 330.409 472.001 335.923 472.001H396.074C401.596 472.001 406.074 467.524 406.074 462.001C406.074 456.479 401.596 452.001 396.074 452.001H335.923C319.381 452.001 305.923 465.459 305.923 482.001C305.923 498.543 319.381 512.001 335.923 512.001H481.998C498.54 512.001 511.998 498.543 511.998 482.001C511.998 465.459 498.54 452.001 481.998 452.001Z" fill="black"/>
<path d="M436.074 472.001C441.597 472.001 446.074 467.524 446.074 462.001C446.074 456.478 441.597 452.001 436.074 452.001C430.551 452.001 426.074 456.478 426.074 462.001C426.074 467.524 430.551 472.001 436.074 472.001Z" fill="black"/>
<path d="M255.923 452.001H204.362C205.471 448.872 206.076 445.506 206.076 442.001C206.076 425.459 192.618 412.001 176.076 412.001H30.0008C13.4589 412.001 0.000976562 425.459 0.000976562 442.001C0.000976562 458.543 13.4589 472.001 30.0008 472.001H81.5625C80.4535 475.13 79.8485 478.496 79.8485 482.001C79.8485 498.542 93.3064 512 109.848 512H255.923C272.465 512 285.923 498.542 285.923 482.001C285.923 465.459 272.465 452.001 255.923 452.001ZM255.923 492.001H109.848C104.334 492.001 99.8484 487.515 99.8484 482.001C99.8484 476.487 104.334 472.001 109.848 472.001C115.37 472.001 119.848 467.524 119.848 462.001C119.848 456.479 115.37 452.001 109.848 452.001H30.0008C24.4868 452.001 20.0009 447.515 20.0009 442.001C20.0009 436.487 24.4868 432.001 30.0008 432.001H176.076C181.59 432.001 186.076 436.487 186.076 442.001C186.076 447.515 181.59 452.001 176.076 452.001C170.554 452.001 166.076 456.479 166.076 462.001C166.076 467.524 170.554 472.001 176.076 472.001H255.923C261.437 472.001 265.923 476.487 265.923 482.001C265.923 487.514 261.437 492.001 255.923 492.001Z" fill="black"/>
</svg>
