<svg width="512" height="512" viewBox="0 0 512 512" fill="none" xmlns="http://www.w3.org/2000/svg">
<path d="M430.696 171C430.696 92.2386 366.848 28.3906 288.087 28.3906C231.686 28.3906 182.938 61.1356 159.801 108.649C146.68 102.904 132.196 99.6956 116.956 99.6956C57.886 99.6956 10 147.582 10 206.652C10 265.722 57.886 313.608 116.956 313.608H430.695C470.075 313.608 501.999 281.684 501.999 242.304C501.999 202.924 470.076 171 430.696 171V171Z" fill="#A0C8FF"/>
<path d="M256 398.609C268.426 398.609 278.5 388.536 278.5 376.109C278.5 363.683 268.426 353.609 256 353.609C243.574 353.609 233.5 363.683 233.5 376.109C233.5 388.536 243.574 398.609 256 398.609Z" fill="#DFEDFF"/>
<path d="M106 398.609C118.426 398.609 128.5 388.536 128.5 376.109C128.5 363.683 118.426 353.609 106 353.609C93.5736 353.609 83.5 363.683 83.5 376.109C83.5 388.536 93.5736 398.609 106 398.609Z" fill="#DFEDFF"/>
<path d="M331 483.609C343.426 483.609 353.5 473.536 353.5 461.109C353.5 448.683 343.426 438.609 331 438.609C318.574 438.609 308.5 448.683 308.5 461.109C308.5 473.536 318.574 483.609 331 483.609Z" fill="#DFEDFF"/>
<path d="M181 483.609C193.426 483.609 203.5 473.536 203.5 461.109C203.5 448.683 193.426 438.609 181 438.609C168.574 438.609 158.5 448.683 158.5 461.109C158.5 473.536 168.574 483.609 181 483.609Z" fill="#DFEDFF"/>
<path d="M406 398.609C418.426 398.609 428.5 388.536 428.5 376.109C428.5 363.683 418.426 353.609 406 353.609C393.574 353.609 383.5 363.683 383.5 376.109C383.5 388.536 393.574 398.609 406 398.609Z" fill="#DFEDFF"/>
<path d="M440.407 161.577C435.525 81.7986 369.071 18.3906 288.087 18.3906C258.921 18.3906 230.566 26.6486 206.089 42.2726C184.882 55.8096 167.402 74.2916 155.109 96.0806C142.861 91.8396 130.066 89.6946 116.956 89.6946C52.466 89.6956 0 142.162 0 206.652C0 271.142 52.466 323.609 116.956 323.609H320.34C325.863 323.609 330.34 319.132 330.34 313.609C330.34 308.086 325.863 303.609 320.34 303.609H116.956C63.495 303.609 20 260.114 20 206.652C20 153.19 63.495 109.696 116.956 109.696C130.428 109.696 143.494 112.426 155.79 117.81C155.791 117.81 155.792 117.81 155.793 117.811C180.287 128.551 199.439 149.151 208.34 174.331C209.791 178.436 213.649 181.001 217.768 181.001C218.874 181.001 219.999 180.816 221.101 180.426C226.309 178.586 229.037 172.872 227.197 167.665C217.659 140.682 198.36 118.068 173.461 104.273C197.183 63.3936 240.248 38.3896 288.087 38.3896C358.069 38.3896 415.556 92.8836 420.362 161.665C408.348 163.193 396.832 167.368 386.598 173.986C381.96 176.985 380.632 183.175 383.631 187.813C385.545 190.772 388.758 192.384 392.038 192.384C393.897 192.384 395.78 191.865 397.459 190.78C407.354 184.381 418.847 180.999 430.694 180.999C464.499 181 492 208.501 492 242.304C492 276.108 464.499 303.609 430.695 303.609H400.34C394.818 303.609 390.34 308.086 390.34 313.609C390.34 319.132 394.818 323.609 400.34 323.609H430.695C475.527 323.609 512 287.136 512 242.304C512 200.759 480.678 166.392 440.407 161.577V161.577Z" fill="black"/>
<path d="M360.34 323.609C365.863 323.609 370.34 319.132 370.34 313.609C370.34 308.087 365.863 303.609 360.34 303.609C354.817 303.609 350.34 308.087 350.34 313.609C350.34 319.132 354.817 323.609 360.34 323.609Z" fill="black"/>
<path d="M256 343.609C238.08 343.609 223.5 358.189 223.5 376.109C223.5 394.029 238.08 408.609 256 408.609C273.921 408.609 288.5 394.029 288.5 376.109C288.5 358.189 273.921 343.609 256 343.609ZM256 388.609C249.107 388.609 243.5 383.002 243.5 376.109C243.5 369.216 249.107 363.609 256 363.609C262.893 363.609 268.5 369.216 268.5 376.109C268.5 383.001 262.893 388.609 256 388.609Z" fill="black"/>
<path d="M106 343.609C88.08 343.609 73.5 358.189 73.5 376.109C73.5 394.029 88.08 408.609 106 408.609C123.92 408.609 138.5 394.029 138.5 376.109C138.5 358.189 123.92 343.609 106 343.609ZM106 388.609C99.107 388.609 93.5 383.002 93.5 376.109C93.5 369.216 99.107 363.609 106 363.609C112.893 363.609 118.5 369.216 118.5 376.109C118.5 383.001 112.893 388.609 106 388.609Z" fill="black"/>
<path d="M331 428.609C313.079 428.609 298.5 443.189 298.5 461.109C298.5 479.029 313.079 493.609 331 493.609C348.921 493.609 363.5 479.029 363.5 461.109C363.5 443.189 348.921 428.609 331 428.609ZM331 473.609C324.107 473.609 318.5 468.002 318.5 461.109C318.5 454.216 324.107 448.609 331 448.609C337.893 448.609 343.5 454.216 343.5 461.109C343.5 468.001 337.893 473.609 331 473.609Z" fill="black"/>
<path d="M181 428.609C163.08 428.609 148.5 443.189 148.5 461.109C148.5 479.029 163.08 493.609 181 493.609C198.92 493.609 213.5 479.029 213.5 461.109C213.5 443.189 198.92 428.609 181 428.609ZM181 473.609C174.107 473.609 168.5 468.002 168.5 461.109C168.5 454.216 174.107 448.609 181 448.609C187.893 448.609 193.5 454.216 193.5 461.109C193.5 468.001 187.893 473.609 181 473.609Z" fill="black"/>
<path d="M406 343.609C388.079 343.609 373.5 358.189 373.5 376.109C373.5 394.029 388.079 408.609 406 408.609C423.921 408.609 438.5 394.029 438.5 376.109C438.5 358.189 423.921 343.609 406 343.609ZM406 388.609C399.107 388.609 393.5 383.002 393.5 376.109C393.5 369.216 399.107 363.609 406 363.609C412.893 363.609 418.5 369.216 418.5 376.109C418.5 383.001 412.893 388.609 406 388.609Z" fill="black"/>
</svg>
