<svg width="512" height="512" viewBox="0 0 512 512" fill="none" xmlns="http://www.w3.org/2000/svg">
<g clip-path="url(#clip0)">
<path d="M399.951 335.211C399.951 262.206 340.769 203.024 267.764 203.024C215.486 203.024 170.3 233.376 148.854 277.417C136.692 272.092 123.266 269.118 109.14 269.118C54.3867 269.117 10 313.504 10 368.257C10 423.011 54.3867 467.398 109.14 467.398H399.951C436.454 467.398 466.044 437.807 466.044 401.304C466.044 364.801 436.453 335.211 399.951 335.211Z" fill="#A0C8FF"/>
<path d="M389.647 283.971C369.637 236.411 322.598 203.022 267.768 203.022C261.898 203.022 256.118 203.402 250.448 204.152C249.918 163.202 276.678 125.312 317.948 113.502C367.387 99.3522 418.947 127.952 433.097 177.402C445.167 219.552 426.157 263.231 389.647 283.971Z" fill="#FFCD69"/>
<path d="M409.645 325.826C408.784 312.683 406.122 300.026 401.917 288.089C438.356 263.199 455.061 217.775 442.712 174.652C435.134 148.169 417.696 126.224 393.61 112.859C369.527 99.4951 341.681 96.3101 315.199 103.889C273.386 115.854 243.762 152.872 240.705 195.628C223.227 199.001 206.5 205.618 191.368 215.277C171.782 227.78 155.607 244.81 144.17 264.881C132.915 261.054 121.171 259.119 109.142 259.119C48.9597 259.119 0 308.079 0 368.259C0 428.438 48.9597 477.398 109.14 477.398H302.553C308.075 477.398 312.553 472.921 312.553 467.398C312.553 461.875 308.075 457.398 302.553 457.398H109.14C59.9876 457.398 19.9999 417.41 19.9999 368.259C19.9999 319.107 59.9876 279.118 109.14 279.118C121.524 279.118 133.536 281.627 144.841 286.576C167.363 296.45 184.973 315.391 193.156 338.542C194.607 342.647 198.465 345.212 202.584 345.212C203.69 345.212 204.815 345.027 205.916 344.637C211.123 342.797 213.853 337.083 212.012 331.876C203.197 306.935 185.446 285.992 162.531 273.087C184.467 235.805 223.938 213.023 267.763 213.023C332.012 213.023 384.837 262.869 389.6 325.919C378.601 327.419 368.064 331.296 358.68 337.365C354.042 340.364 352.713 346.555 355.712 351.193C357.626 354.152 360.839 355.764 364.119 355.764C365.978 355.764 367.861 355.245 369.539 354.16C378.594 348.305 389.109 345.21 399.95 345.21C430.88 345.21 456.043 370.373 456.043 401.303C456.043 432.233 430.882 457.398 399.951 457.398H382.553C377.031 457.398 372.553 461.875 372.553 467.398C372.553 472.921 377.031 477.398 382.553 477.398H399.951C441.908 477.398 476.044 443.262 476.044 401.304C476.044 362.63 447.042 330.602 409.645 325.826ZM267.764 193.026C265.511 193.026 263.266 193.099 261.025 193.204C264.925 160.392 288.257 132.401 320.7 123.117C342.045 117.008 364.49 119.576 383.905 130.347C403.319 141.12 417.376 158.808 423.484 180.156C433.077 213.659 420.924 248.88 393.743 269.345C369.948 224.018 322.411 193.026 267.764 193.026Z" fill="black"/>
<path d="M342.553 477.397C348.076 477.397 352.553 472.92 352.553 467.397C352.553 461.875 348.076 457.397 342.553 457.397C337.03 457.397 332.553 461.875 332.553 467.397C332.553 472.92 337.03 477.397 342.553 477.397Z" fill="black"/>
<path d="M297.065 76.8857C298.322 81.2757 302.325 84.1357 306.674 84.1357C307.585 84.1357 308.512 84.0107 309.431 83.7467C314.741 82.2267 317.813 76.6897 316.293 71.3807L307.84 41.8527C306.319 36.5427 300.779 33.4707 295.474 34.9917C290.164 36.5117 287.092 42.0487 288.612 47.3577L297.065 76.8857Z" fill="black"/>
<path d="M194.638 131.817L221.494 146.719C223.031 147.572 224.696 147.977 226.337 147.977C229.853 147.977 233.264 146.119 235.09 142.827C237.77 137.998 236.027 131.911 231.198 129.231L204.342 114.329C199.512 111.649 193.425 113.393 190.746 118.221C188.066 123.05 189.809 129.137 194.638 131.817Z" fill="black"/>
<path d="M492.518 274.231L465.662 259.329C460.834 256.649 454.746 258.391 452.066 263.221C449.386 268.05 451.128 274.138 455.959 276.817L482.815 291.719C484.352 292.572 486.016 292.977 487.658 292.977C491.174 292.977 494.584 291.119 496.411 287.827C499.09 282.998 497.348 276.911 492.518 274.231Z" fill="black"/>
<path d="M511.612 154.921C510.092 149.61 504.55 146.539 499.246 148.059L469.718 156.512C464.408 158.032 461.336 163.568 462.856 168.878C464.113 173.269 468.116 176.129 472.465 176.129C473.376 176.129 474.303 176.003 475.222 175.74L504.75 167.287C510.059 165.767 513.132 160.231 511.612 154.921Z" fill="black"/>
<path d="M403.774 94.5375C405.311 95.3905 406.975 95.7955 408.617 95.7955C412.133 95.7955 415.543 93.9375 417.37 90.6455L432.272 63.7885C434.952 58.9585 433.209 52.8715 428.379 50.1925C423.551 47.5125 417.464 49.2555 414.783 54.0845L399.881 80.9415C397.202 85.7705 398.945 91.8575 403.774 94.5375Z" fill="black"/>
</g>
<defs>
<clipPath id="clip0">
<rect width="512" height="512" fill="white"/>
</clipPath>
</defs>
</svg>
