<svg width="512" height="512" viewBox="0 0 512 512" fill="none" xmlns="http://www.w3.org/2000/svg">
<g clip-path="url(#clip0)">
<path d="M430.696 162.638C430.696 83.8771 366.848 20.0291 288.087 20.0291C231.686 20.0291 182.938 52.7731 159.801 100.287C146.68 94.5421 132.196 91.3341 116.956 91.3341C57.886 91.3331 10 139.219 10 198.29C10 257.36 57.886 305.247 116.956 305.247H430.695C470.075 305.247 501.999 273.323 501.999 233.943C501.999 194.563 470.076 162.638 430.696 162.638Z" fill="#A0C8FF"/>
<path d="M128.332 491.97C141.385 456.545 154.438 421.119 167.491 385.694H96.8281L203.668 238.97L164.268 345.246H235.173C199.559 394.154 163.945 443.062 128.332 491.97Z" fill="#FFCD69"/>
<path d="M308.332 491.97C321.385 456.545 334.438 421.119 347.491 385.694H276.828L383.668 238.97L344.268 345.246H415.173C379.559 394.154 343.945 443.062 308.332 491.97Z" fill="#FFCD69"/>
<path d="M440.418 153.217C438.581 122.659 427.805 93.88 408.973 69.479C405.6 65.107 399.319 64.297 394.947 67.672C390.574 71.046 389.765 77.326 393.14 81.698C409.261 102.588 418.564 127.181 420.357 153.305C408.345 154.834 396.831 159.008 386.599 165.625C381.961 168.624 380.633 174.815 383.632 179.453C385.546 182.413 388.758 184.024 392.039 184.024C393.899 184.024 395.782 183.506 397.46 182.42C407.349 176.025 418.833 172.644 430.671 172.639C430.681 172.639 430.691 172.64 430.701 172.64C464.502 172.64 492.001 200.139 492.001 233.94C492.001 267.746 464.502 295.25 430.701 295.25H373.469L393.045 242.447C394.781 237.764 392.796 232.518 388.394 230.158C383.993 227.798 378.524 229.047 375.584 233.085L330.317 295.25H193.468L213.044 242.447C214.78 237.764 212.795 232.518 208.393 230.158C203.993 227.798 198.523 229.047 195.583 233.085L150.316 295.25H116.96C63.496 295.25 20 251.754 20 198.29C20 144.826 63.496 101.33 116.96 101.33C130.431 101.33 143.494 104.061 155.786 109.449C155.804 109.457 155.821 109.462 155.839 109.469C180.311 120.215 199.445 140.805 208.34 165.969C209.791 170.074 213.649 172.639 217.768 172.639C218.874 172.639 219.999 172.454 221.101 172.064C226.308 170.224 229.037 164.51 227.197 159.303C217.659 132.32 198.36 109.706 173.462 95.911C197.185 55.033 240.251 30.029 288.091 30.029C303.532 30.029 318.655 32.656 333.039 37.838C338.237 39.71 343.965 37.015 345.836 31.819C347.707 26.623 345.013 20.893 339.817 19.022C323.253 13.055 305.849 10.03 288.091 10.03C258.924 10.03 230.57 18.288 206.094 33.91C184.886 47.447 167.405 65.928 155.111 87.72C142.865 83.476 130.071 81.33 116.962 81.33C52.468 81.329 0 133.797 0 198.289C0 262.781 52.468 315.249 116.96 315.249H135.753L88.743 379.808C86.529 382.849 86.208 386.876 87.914 390.229C89.621 393.582 93.064 395.694 96.827 395.694H153.148L118.948 488.512C117.222 493.195 119.214 498.433 123.614 500.787C125.109 501.586 126.726 501.97 128.325 501.97C131.434 501.97 134.475 500.519 136.415 497.856L243.255 351.132C245.469 348.09 245.79 344.063 244.084 340.71C242.377 337.357 238.934 335.245 235.171 335.245H178.64L186.054 315.248H315.754L268.744 379.807C266.53 382.848 266.209 386.875 267.915 390.228C269.622 393.581 273.065 395.693 276.828 395.693H333.149L298.949 488.511C297.223 493.194 299.215 498.432 303.616 500.786C305.111 501.585 306.728 501.969 308.327 501.969C311.436 501.969 314.477 500.518 316.417 497.855L423.257 351.131C425.471 348.089 425.792 344.062 424.086 340.709C422.379 337.356 418.936 335.244 415.173 335.244H358.64L366.054 315.247H430.7C475.529 315.247 512 278.772 512 233.937C512 192.399 480.682 158.035 440.418 153.217ZM215.52 355.246L162.577 427.953L176.874 389.152C178.004 386.084 177.563 382.657 175.693 379.975C173.823 377.293 170.76 375.695 167.49 375.695H116.479L169.11 303.417L154.891 341.771C153.753 344.84 154.189 348.272 156.059 350.959C157.928 353.646 160.995 355.248 164.267 355.248H215.52V355.246ZM395.52 355.246L342.577 427.953L356.874 389.152C358.004 386.084 357.563 382.657 355.693 379.975C353.823 377.293 350.76 375.695 347.49 375.695H296.479L349.11 303.417L334.891 341.771C333.753 344.84 334.189 348.272 336.059 350.959C337.928 353.646 340.994 355.248 344.267 355.248H395.52V355.246Z" fill="black"/>
<path d="M372.084 57.3901C377.607 57.3901 382.084 52.913 382.084 47.3901C382.084 41.8673 377.607 37.3901 372.084 37.3901C366.561 37.3901 362.084 41.8673 362.084 47.3901C362.084 52.913 366.561 57.3901 372.084 57.3901Z" fill="black"/>
</g>
<defs>
<clipPath id="clip0">
<rect width="512" height="512" fill="white"/>
</clipPath>
</defs>
</svg>
