<svg width="697" height="697" viewBox="0 0 697 697" fill="none" xmlns="http://www.w3.org/2000/svg">
<circle cx="348.5" cy="348.5" r="348.5" fill="#9CC8FC"/>
<path fill-rule="evenodd" clip-rule="evenodd" d="M480.419 346.596C479.619 314.059 466.804 281.762 441.973 256.932C390.657 205.616 307.458 205.616 256.143 256.932C231.312 281.762 218.496 314.059 217.696 346.596H0.00509369C0.00169933 347.23 0 347.865 0 348.5C0 540.971 156.029 697 348.5 697C540.971 697 697 540.971 697 348.5C697 347.865 696.998 347.23 696.995 346.596H480.419Z" fill="#F5EF57"/>
<rect x="175.578" y="202.837" width="22.8525" height="76.1749" transform="rotate(-45 175.578 202.837)" fill="#F5EF57"/>
<rect x="335.169" y="121.88" width="22.8525" height="76.1749" fill="#F5EF57"/>
<rect x="196.851" y="301.161" width="22.8525" height="76.1749" transform="rotate(98.8325 196.851 301.161)" fill="#F5EF57"/>
<rect width="22.8525" height="76.1749" transform="matrix(0.153547 0.988141 0.988141 -0.153547 502.754 301.161)" fill="#F5EF57"/>
<rect x="468.673" y="251.314" width="22.8525" height="76.1749" transform="rotate(-135 468.673 251.314)" fill="#F5EF57"/>
<path fill-rule="evenodd" clip-rule="evenodd" d="M696.75 361.831C689.743 548.124 536.508 697 348.5 697C160.492 697 7.25655 548.124 0.250244 361.831H696.75Z" fill="#75EA7A"/>
</svg>
