<svg width="697" height="697" viewBox="0 0 697 697" fill="none" xmlns="http://www.w3.org/2000/svg">
<circle cx="348.5" cy="348.5" r="348.5" fill="#7A3CDE"/>
<path fill-rule="evenodd" clip-rule="evenodd" d="M398.3 504.634C311.564 513.921 228.575 458.96 205.29 372.058C186.585 302.252 211.549 231.032 263.435 187.403C254.232 188.388 244.985 190.097 235.764 192.568C139.641 218.324 82.5972 317.127 108.353 413.25C134.109 509.373 232.912 566.417 329.035 540.661C355.352 533.609 378.739 521.082 398.3 504.634Z" fill="#FFEDAB"/>
<path d="M477.997 152.35L493.108 178.088L523.276 183.931L502.447 205.681L505.981 235.031L477.997 222.735L450.013 235.031L453.546 205.681L432.718 183.931L462.885 178.088L477.997 152.35Z" fill="#FBD653"/>
<path d="M559.885 300.891L574.392 326.629L603.353 332.472L583.357 354.222L586.749 383.572L559.885 371.276L533.02 383.572L536.412 354.222L516.417 332.472L545.378 326.629L559.885 300.891Z" fill="#FBD653"/>
<path d="M418.961 278.038L433.468 303.776L462.429 309.62L442.434 331.37L445.826 360.719L418.961 348.424L392.097 360.719L395.489 331.37L375.493 309.62L404.454 303.776L418.961 278.038Z" fill="#FBD653"/>
</svg>
