<svg width="512" height="512" viewBox="0 0 512 512" fill="none" xmlns="http://www.w3.org/2000/svg">
<g clip-path="url(#clip0)">
<path d="M430.696 156.802C430.696 78.0414 366.848 14.1934 288.087 14.1934C231.686 14.1934 182.938 46.9374 159.801 94.4514C146.68 88.7064 132.196 85.4984 116.956 85.4984C57.886 85.4984 10 133.384 10 192.454C10 251.524 57.886 299.41 116.956 299.41H430.695C470.075 299.41 501.999 267.486 501.999 228.106C502 188.726 470.076 156.802 430.696 156.802V156.802Z" fill="#A0C8FF"/>
<path d="M406 339.412L388.519 368.526C380.359 382.116 390.148 399.412 406 399.412C421.852 399.412 431.641 382.116 423.481 368.526L406 339.412Z" fill="#DFEDFF"/>
<path d="M256 339.412L238.519 368.526C230.359 382.116 240.148 399.412 256 399.412C271.852 399.412 281.641 382.116 273.481 368.526L256 339.412Z" fill="#DFEDFF"/>
<path d="M181 437.803L163.519 466.917C155.359 480.507 165.148 497.803 181 497.803C196.852 497.803 206.641 480.507 198.481 466.917L181 437.803Z" fill="#DFEDFF"/>
<path d="M330.586 437.803L313.105 466.917C304.945 480.507 314.734 497.803 330.586 497.803C346.438 497.803 356.227 480.507 348.067 466.917L330.586 437.803Z" fill="#DFEDFF"/>
<path d="M106 339.412L88.5187 368.526C80.3587 382.116 90.1477 399.412 106 399.412C121.852 399.412 131.641 382.116 123.481 368.526L106 339.412Z" fill="#DFEDFF"/>
<path d="M440.407 147.38C435.525 67.6033 369.071 4.19531 288.087 4.19531C258.921 4.19531 230.566 12.4533 206.09 28.0773C184.883 41.6143 167.402 60.0953 155.111 81.8853C142.861 77.6443 130.068 75.4993 116.957 75.4993C52.466 75.4993 0 127.965 0 192.455C0 256.945 52.466 309.412 116.956 309.412H320.341C325.864 309.412 330.341 304.935 330.341 299.412C330.341 293.889 325.864 289.412 320.341 289.412H116.956C-10.473 287.105 -10.443 97.7783 116.96 95.4993C157.249 95.0183 195.291 122.113 208.339 160.134C209.79 164.239 213.649 166.804 217.768 166.804C218.873 166.804 219.998 166.619 221.101 166.229C226.308 164.389 229.037 158.675 227.197 153.468C217.66 126.486 198.36 103.872 173.462 90.0773C197.183 49.1983 240.249 24.1943 288.088 24.1943C358.07 24.1943 415.557 78.6873 420.363 147.469C408.349 148.997 396.834 153.172 386.6 159.789C381.962 162.788 380.633 168.979 383.632 173.617C385.546 176.576 388.759 178.188 392.039 178.188C393.898 178.188 395.781 177.669 397.459 176.584C436.472 150.023 493.246 180.726 491.999 228.108C490.03 280.711 445.399 293.78 400.341 289.411C394.819 289.411 390.341 293.888 390.341 299.411C390.341 304.934 394.819 309.411 400.341 309.411H430.696C475.528 309.411 512.001 272.938 512.001 228.107C512 186.563 480.678 152.195 440.407 147.38V147.38Z" fill="black"/>
<path d="M360.34 309.412C365.863 309.412 370.34 304.935 370.34 299.412C370.34 293.889 365.863 289.412 360.34 289.412C354.817 289.412 350.34 293.889 350.34 299.412C350.34 304.935 354.817 309.412 360.34 309.412Z" fill="black"/>
<path d="M414.573 334.265C412.765 331.254 409.511 329.412 406 329.412C402.489 329.412 399.234 331.254 397.427 334.265L379.947 363.378C374.235 372.891 374.088 384.335 379.553 393.991C385.018 403.647 394.905 409.412 406 409.412C417.095 409.412 426.982 403.647 432.447 393.991C437.913 384.335 437.765 372.89 432.053 363.378L414.573 334.265ZM415.042 384.14C414.145 385.725 411.468 389.412 406 389.412C400.532 389.412 397.855 385.725 396.958 384.14C396.06 382.555 394.278 378.361 397.093 373.673L406 358.839L414.907 373.674C417.722 378.361 415.94 382.555 415.042 384.14Z" fill="black"/>
<path d="M264.573 334.265C262.765 331.254 259.511 329.412 256 329.412C252.488 329.412 249.234 331.254 247.427 334.265L229.947 363.378C224.235 372.891 224.088 384.335 229.553 393.991C235.018 403.647 244.905 409.412 256 409.412C267.095 409.412 276.982 403.647 282.447 393.991C287.913 384.335 287.765 372.89 282.053 363.378L264.573 334.265ZM265.042 384.14C264.145 385.725 261.468 389.412 256 389.412C250.532 389.412 247.855 385.725 246.958 384.14C246.061 382.555 244.278 378.361 247.093 373.673L256 358.839L264.907 373.674C267.722 378.361 265.94 382.555 265.042 384.14Z" fill="black"/>
<path d="M189.573 432.656C187.765 429.645 184.512 427.803 181 427.803C177.488 427.803 174.234 429.645 172.427 432.656L154.947 461.77C149.235 471.282 149.088 482.726 154.553 492.382C160.018 502.038 169.905 507.803 181 507.803C192.095 507.803 201.982 502.038 207.447 492.382C212.913 482.726 212.765 471.282 207.053 461.77L189.573 432.656ZM190.042 482.531C189.144 484.116 186.468 487.803 181 487.803C175.532 487.803 172.855 484.116 171.958 482.531C171.061 480.946 169.278 476.753 172.093 472.065L181 457.23L189.907 472.065C192.722 476.753 190.939 480.946 190.042 482.531Z" fill="black"/>
<path d="M339.159 432.655C337.351 429.645 334.097 427.803 330.586 427.803C327.074 427.803 323.82 429.645 322.013 432.656L304.533 461.77C298.821 471.282 298.674 482.726 304.14 492.382C309.605 502.038 319.492 507.803 330.587 507.803C341.682 507.803 351.569 502.038 357.034 492.382C362.5 482.726 362.352 471.282 356.641 461.769L339.159 432.655ZM339.628 482.531C338.731 484.116 336.054 487.803 330.586 487.803C325.118 487.803 322.441 484.116 321.544 482.531C320.647 480.946 318.864 476.753 321.679 472.065L330.586 457.23L339.494 472.065C342.309 476.752 340.525 480.946 339.628 482.531V482.531Z" fill="black"/>
<path d="M114.573 334.265C112.765 331.254 109.512 329.412 106 329.412C102.488 329.412 99.2335 331.254 97.4265 334.265L79.9455 363.378C74.2335 372.891 74.0865 384.335 79.5515 393.991C85.0165 403.647 94.9035 409.412 105.999 409.412C117.094 409.412 126.981 403.647 132.446 393.991C137.912 384.335 137.764 372.89 132.052 363.378L114.573 334.265ZM115.042 384.14C114.145 385.725 111.468 389.412 106 389.412C100.532 389.412 97.8545 385.725 96.9575 384.14C96.0605 382.555 94.2775 378.361 97.0925 373.673L106 358.839L114.907 373.674C117.722 378.361 115.939 382.555 115.042 384.14Z" fill="black"/>
</g>
<defs>
<clipPath id="clip0">
<rect width="512" height="512" fill="white"/>
</clipPath>
</defs>
</svg>
