<svg width="512" height="512" viewBox="0 0 512 512" fill="none" xmlns="http://www.w3.org/2000/svg">
<g clip-path="url(#clip0)">
<path d="M430.696 156.804C430.696 78.0431 366.848 14.1951 288.087 14.1951C231.686 14.1951 182.938 46.9391 159.801 94.4531C146.68 88.7081 132.196 85.5001 116.956 85.5001C57.886 85.5001 10 133.386 10 192.456C10 251.526 57.886 299.412 116.956 299.412H430.695C470.075 299.412 501.999 267.488 501.999 228.108C502 188.728 470.076 156.804 430.696 156.804Z" fill="#A0C8FF"/>
<path d="M406 339.413L388.519 368.527C380.359 382.117 390.148 399.413 406 399.413C421.852 399.413 431.641 382.117 423.481 368.527L406 339.413Z" fill="#DFEDFF"/>
<path d="M256 339.413L238.519 368.527C230.359 382.117 240.148 399.413 256 399.413C271.852 399.413 281.641 382.117 273.481 368.527L256 339.413Z" fill="#DFEDFF"/>
<path d="M181 437.804L163.519 466.918C155.359 480.508 165.148 497.804 181 497.804C196.852 497.804 206.641 480.508 198.481 466.918L181 437.804Z" fill="#DFEDFF"/>
<path d="M330.586 437.804L313.105 466.918C304.945 480.508 314.734 497.804 330.586 497.804C346.438 497.804 356.227 480.508 348.067 466.918L330.586 437.804Z" fill="#DFEDFF"/>
<path d="M106 339.413L88.5187 368.527C80.3587 382.117 90.1477 399.413 106 399.413C121.852 399.413 131.641 382.117 123.481 368.527L106 339.413Z" fill="#DFEDFF"/>
<path d="M440.407 147.381C435.525 67.604 369.071 4.19604 288.087 4.19604C258.921 4.19604 230.566 12.454 206.09 28.078C184.883 41.615 167.402 60.096 155.111 81.886C142.861 77.6451 130.068 75.5 116.957 75.5C52.466 75.5 0 127.966 0 192.456C0 256.946 52.466 309.413 116.956 309.413H320.341C325.864 309.413 330.341 304.936 330.341 299.413C330.341 293.89 325.864 289.413 320.341 289.413H116.956C-10.473 287.106 -10.443 97.779 116.96 95.5C157.249 95.019 195.291 122.114 208.339 160.135C209.79 164.24 213.649 166.805 217.768 166.805C218.873 166.805 219.998 166.62 221.101 166.23C226.308 164.39 229.037 158.676 227.197 153.469C217.66 126.487 198.36 103.873 173.462 90.078C197.183 49.199 240.249 24.195 288.088 24.195C358.07 24.195 415.557 78.688 420.363 147.47C408.349 148.998 396.834 153.173 386.6 159.79C381.962 162.789 380.633 168.98 383.632 173.618C385.546 176.577 388.759 178.189 392.039 178.189C393.898 178.189 395.781 177.67 397.459 176.585C436.472 150.024 493.246 180.727 491.999 228.109C490.03 280.712 445.399 293.781 400.341 289.412C394.819 289.412 390.341 293.889 390.341 299.412C390.341 304.935 394.819 309.412 400.341 309.412H430.696C475.528 309.412 512.001 272.939 512.001 228.108C512 186.564 480.678 152.196 440.407 147.381Z" fill="black"/>
<path d="M360.34 309.413C365.863 309.413 370.34 304.936 370.34 299.413C370.34 293.89 365.863 289.413 360.34 289.413C354.817 289.413 350.34 293.89 350.34 299.413C350.34 304.936 354.817 309.413 360.34 309.413Z" fill="black"/>
<path d="M414.573 334.266C412.765 331.255 409.511 329.413 406 329.413C402.489 329.413 399.234 331.255 397.427 334.266L379.947 363.379C374.235 372.892 374.088 384.336 379.553 393.992C385.018 403.648 394.905 409.413 406 409.413C417.095 409.413 426.982 403.648 432.447 393.992C437.913 384.336 437.765 372.891 432.053 363.379L414.573 334.266ZM415.042 384.141C414.145 385.726 411.468 389.413 406 389.413C400.532 389.413 397.855 385.726 396.958 384.141C396.06 382.556 394.278 378.362 397.093 373.674L406 358.84L414.907 373.675C417.722 378.362 415.94 382.556 415.042 384.141Z" fill="black"/>
<path d="M264.573 334.266C262.765 331.255 259.511 329.413 256 329.413C252.488 329.413 249.234 331.255 247.427 334.266L229.947 363.379C224.235 372.892 224.088 384.336 229.553 393.992C235.018 403.648 244.905 409.413 256 409.413C267.095 409.413 276.982 403.648 282.447 393.992C287.913 384.336 287.765 372.891 282.053 363.379L264.573 334.266ZM265.042 384.141C264.145 385.726 261.468 389.413 256 389.413C250.532 389.413 247.855 385.726 246.958 384.141C246.061 382.556 244.278 378.362 247.093 373.674L256 358.84L264.907 373.675C267.722 378.362 265.94 382.556 265.042 384.141Z" fill="black"/>
<path d="M189.573 432.657C187.765 429.646 184.512 427.804 181 427.804C177.488 427.804 174.234 429.646 172.427 432.657L154.947 461.771C149.235 471.283 149.088 482.727 154.553 492.383C160.018 502.039 169.905 507.804 181 507.804C192.095 507.804 201.982 502.039 207.447 492.383C212.913 482.727 212.765 471.283 207.053 461.771L189.573 432.657ZM190.042 482.532C189.144 484.117 186.468 487.804 181 487.804C175.532 487.804 172.855 484.117 171.958 482.532C171.061 480.947 169.278 476.754 172.093 472.066L181 457.231L189.907 472.066C192.722 476.754 190.939 480.947 190.042 482.532Z" fill="black"/>
<path d="M339.159 432.656C337.351 429.646 334.097 427.804 330.586 427.804C327.074 427.804 323.82 429.646 322.013 432.657L304.533 461.771C298.821 471.283 298.674 482.727 304.14 492.383C309.605 502.039 319.492 507.804 330.587 507.804C341.682 507.804 351.569 502.039 357.034 492.383C362.5 482.727 362.352 471.283 356.641 461.77L339.159 432.656ZM339.628 482.532C338.731 484.117 336.054 487.804 330.586 487.804C325.118 487.804 322.441 484.117 321.544 482.532C320.647 480.947 318.864 476.754 321.679 472.066L330.586 457.231L339.494 472.066C342.309 476.753 340.525 480.947 339.628 482.532Z" fill="black"/>
<path d="M114.573 334.266C112.765 331.255 109.512 329.413 106 329.413C102.488 329.413 99.2335 331.255 97.4265 334.266L79.9455 363.379C74.2335 372.892 74.0865 384.336 79.5515 393.992C85.0165 403.648 94.9035 409.413 105.999 409.413C117.094 409.413 126.981 403.648 132.446 393.992C137.912 384.336 137.764 372.891 132.052 363.379L114.573 334.266ZM115.042 384.141C114.145 385.726 111.468 389.413 106 389.413C100.532 389.413 97.8545 385.726 96.9575 384.141C96.0605 382.556 94.2775 378.362 97.0925 373.674L106 358.84L114.907 373.675C117.722 378.362 115.939 382.556 115.042 384.141Z" fill="black"/>
</g>
<defs>
<clipPath id="clip0">
<rect width="512" height="512" fill="white"/>
</clipPath>
</defs>
</svg>
