<svg width="512" height="512" viewBox="0 0 512 512" fill="none" xmlns="http://www.w3.org/2000/svg">
<g clip-path="url(#clip0)">
<path d="M386.142 272.73C386.142 206.729 332.637 153.225 266.636 153.225C219.372 153.225 178.522 180.665 159.134 220.481C148.139 215.667 136.001 212.978 123.23 212.978C73.7289 212.978 33.6001 253.106 33.6001 302.607C33.6001 352.108 73.7289 392.237 123.23 392.237H386.143C419.144 392.237 445.895 365.485 445.895 332.484C445.894 299.483 419.143 272.73 386.142 272.73Z" fill="#A0C8FF"/>
<path d="M419.193 153.222C419.193 184.497 402.103 211.778 376.759 226.248C358.64 183.345 316.155 153.222 266.639 153.222C261.391 153.222 256.234 153.558 251.17 154.221C251.16 153.885 251.16 153.559 251.16 153.222C251.16 106.824 288.784 69.2 335.182 69.2C381.58 69.2 419.193 106.824 419.193 153.222Z" fill="#FFCD69"/>
<path d="M133.713 442L116.232 471.114C108.072 484.704 117.861 502 133.713 502C149.565 502 159.354 484.704 151.194 471.114L133.713 442Z" fill="#DFEDFF"/>
<path d="M256 442L238.519 471.114C230.359 484.704 240.148 502 256 502C271.852 502 281.641 484.704 273.481 471.114L256 442Z" fill="#DFEDFF"/>
<path d="M378.285 442L360.804 471.114C352.644 484.704 362.433 502 378.285 502C394.137 502 403.926 484.704 395.766 471.114L378.285 442Z" fill="#DFEDFF"/>
<path d="M395.808 263.398C394.984 251.889 392.65 240.791 389.003 230.303C413.985 212.812 429.192 184.011 429.192 153.223C429.192 101.379 387.018 59.2009 335.18 59.2009C285.869 59.2009 245.312 97.3608 241.466 145.7C225.735 148.803 210.682 154.793 197.049 163.494C179.435 174.738 164.849 190.004 154.455 207.988C144.408 204.661 133.942 202.979 123.227 202.979C68.292 202.979 23.5981 247.672 23.5981 302.608C23.5981 357.544 68.291 402.238 123.227 402.238H295.174C300.696 402.238 305.174 397.761 305.174 392.238C305.174 386.715 300.696 382.238 295.174 382.238H123.228C18.5722 380.343 18.5962 224.851 123.231 222.979C156.32 222.584 187.561 244.837 198.278 276.063C199.729 280.168 203.587 282.733 207.707 282.733C208.812 282.733 209.937 282.548 211.04 282.158C216.247 280.317 218.976 274.604 217.136 269.397C209.198 246.942 193.326 228.038 172.824 216.221C192.578 183.304 227.687 163.226 266.635 163.226C323.911 163.226 371.05 207.427 375.749 263.509C365.994 264.97 356.655 268.477 348.309 273.874C343.671 276.873 342.342 283.063 345.341 287.701C347.255 290.66 350.468 292.272 353.748 292.272C355.607 292.272 357.49 291.754 359.168 290.668C442.954 248.975 470.313 388.725 375.175 382.237C369.653 382.237 365.175 386.714 365.175 392.237C365.175 397.76 369.653 402.237 375.175 402.237H386.141C424.604 402.237 455.894 370.946 455.894 332.484C455.894 297.301 429.713 268.118 395.808 263.398ZM266.635 143.225C265.037 143.225 263.443 143.257 261.852 143.315C266.709 107.17 297.726 79.1998 335.18 79.1998C375.991 79.1998 409.192 112.406 409.192 153.222C409.192 176.116 398.505 197.614 380.744 211.538C358.867 170.906 315.925 143.225 266.635 143.225Z" fill="black"/>
<path d="M335.175 402.236C340.698 402.236 345.175 397.759 345.175 392.236C345.175 386.713 340.698 382.236 335.175 382.236C329.652 382.236 325.175 386.713 325.175 392.236C325.175 397.759 329.652 402.236 335.175 402.236Z" fill="black"/>
<path d="M291.213 35.9989C292.47 40.3889 296.473 43.2489 300.822 43.2489C301.733 43.2489 302.66 43.1239 303.579 42.8599C308.888 41.3399 311.961 35.8039 310.441 30.4939L303.787 7.24992C302.267 1.93992 296.724 -1.13108 291.421 0.387923C286.111 1.90792 283.039 7.44392 284.559 12.7539L291.213 35.9989Z" fill="black"/>
<path d="M200.062 89.6829L221.238 101.433C222.775 102.286 224.439 102.691 226.081 102.691C229.597 102.691 233.007 100.833 234.834 97.5409C237.514 92.7109 235.77 86.6249 230.941 83.9449L209.765 72.1949C204.936 69.5149 198.85 71.2579 196.169 76.0869C193.49 80.9169 195.233 87.0039 200.062 89.6829Z" fill="black"/>
<path d="M470.298 216.759L449.122 205.009C444.293 202.329 438.207 204.072 435.526 208.901C432.846 213.731 434.59 219.818 439.419 222.497L460.595 234.247C462.132 235.1 463.796 235.505 465.438 235.505C468.954 235.505 472.364 233.647 474.191 230.355C476.87 225.526 475.127 219.439 470.298 216.759Z" fill="black"/>
<path d="M488.013 109.472C486.493 104.162 480.952 101.09 475.647 102.611L452.403 109.265C447.093 110.785 444.021 116.322 445.541 121.631C446.798 126.021 450.801 128.881 455.15 128.881C456.061 128.881 456.988 128.755 457.907 128.492L481.151 121.838C486.461 120.319 489.533 114.782 488.013 109.472Z" fill="black"/>
<path d="M390.861 52.875C392.398 53.728 394.062 54.133 395.704 54.133C399.22 54.133 402.63 52.275 404.457 48.983L416.207 27.807C418.887 22.977 417.143 16.89 412.314 14.211C407.486 11.531 401.398 13.273 398.718 18.103L386.968 39.279C384.289 44.108 386.032 50.195 390.861 52.875Z" fill="black"/>
<path d="M142.286 436.852C140.478 433.842 137.224 432 133.713 432C130.201 432 126.947 433.842 125.14 436.852L107.66 465.965C101.948 475.478 101.801 486.922 107.266 496.578C112.731 506.234 122.618 511.999 133.713 511.999C144.808 511.999 154.696 506.234 160.161 496.578C165.626 486.922 165.479 475.478 159.767 465.965L142.286 436.852ZM142.756 486.728C141.859 488.314 139.182 492.001 133.713 492.001C128.245 492.001 125.569 488.314 124.671 486.729C123.774 485.144 121.991 480.95 124.806 476.262L133.713 461.427L142.621 476.262C145.435 480.949 143.653 485.142 142.756 486.728Z" fill="black"/>
<path d="M264.573 436.852C262.765 433.842 259.512 432 256 432C252.488 432 249.234 433.842 247.427 436.852L229.947 465.965C224.235 475.478 224.088 486.922 229.553 496.578C235.018 506.234 244.905 511.999 256 511.999C267.095 511.999 276.981 506.234 282.447 496.579C287.913 486.923 287.765 475.478 282.054 465.965L264.573 436.852ZM265.042 486.728C264.145 488.314 261.468 492.001 256 492.001C250.532 492.001 247.855 488.314 246.958 486.729C246.06 485.144 244.278 480.95 247.093 476.262L256 461.427L264.908 476.262C267.722 480.949 265.939 485.143 265.042 486.728Z" fill="black"/>
<path d="M386.858 436.852C385.05 433.842 381.796 432 378.285 432C374.773 432 371.519 433.842 369.712 436.852L352.232 465.965C346.52 475.478 346.374 486.922 351.839 496.578C357.304 506.234 367.192 511.999 378.287 511.999C389.383 511.999 399.269 506.234 404.734 496.578C410.2 486.922 410.052 475.477 404.34 465.965L386.858 436.852ZM387.328 486.728C386.431 488.314 383.754 492.001 378.285 492.001C372.817 492.001 370.14 488.314 369.243 486.729C368.346 485.144 366.563 480.95 369.378 476.262L378.285 461.427L387.193 476.262C390.008 480.949 388.225 485.142 387.328 486.728Z" fill="black"/>
</g>
<defs>
<clipPath id="clip0">
<rect width="512" height="512" fill="white"/>
</clipPath>
</defs>
</svg>
