<svg width="512" height="512" viewBox="0 0 512 512" fill="none" xmlns="http://www.w3.org/2000/svg">
<g clip-path="url(#clip0)">
<path d="M430.696 173.628C430.696 94.8666 366.848 31.0186 288.087 31.0186C231.686 31.0186 182.938 63.7626 159.801 111.277C146.68 105.532 132.196 102.324 116.956 102.324C57.886 102.324 10 150.21 10 209.28C10 268.35 57.886 316.237 116.956 316.237H430.695C470.075 316.237 501.999 284.313 501.999 244.933C501.999 205.553 470.076 173.628 430.696 173.628Z" fill="#A0C8FF"/>
<path d="M440.407 164.205C435.525 84.4265 369.071 21.0195 288.087 21.0195C258.921 21.0195 230.566 29.2775 206.09 44.9015C184.883 58.4375 167.402 76.9195 155.11 98.7095C142.86 94.4675 130.066 92.3235 116.956 92.3235C52.466 92.3235 0 144.79 0 209.28C0 273.77 52.466 326.236 116.956 326.236H320.341C325.864 326.236 330.341 321.759 330.341 316.236C330.341 310.713 325.864 306.236 320.341 306.236H116.956C63.494 306.237 20 262.742 20 209.28C20 155.818 63.494 112.323 116.956 112.323C130.428 112.323 143.493 115.053 155.791 120.437C155.792 120.437 155.793 120.437 155.794 120.438C180.288 131.178 199.44 151.778 208.339 176.958C209.79 181.063 213.649 183.628 217.768 183.628C218.873 183.628 219.998 183.443 221.101 183.053C226.308 181.213 229.037 175.499 227.197 170.292C217.66 143.31 198.361 120.696 173.462 106.901C197.182 66.0215 240.248 41.0175 288.088 41.0175C358.07 41.0175 415.557 95.5115 420.363 164.293C408.349 165.821 396.834 169.996 386.6 176.613C381.962 179.612 380.633 185.803 383.632 190.441C385.546 193.401 388.759 195.012 392.039 195.012C393.898 195.012 395.781 194.493 397.459 193.408C407.354 187.009 418.848 183.627 430.695 183.627C464.499 183.627 492 211.128 492 244.931C492 278.734 464.499 306.235 430.695 306.235H400.34C394.818 306.235 390.34 310.712 390.34 316.235C390.34 321.758 394.818 326.235 400.34 326.235H430.695C475.527 326.235 512 289.762 512 244.931C512 203.388 480.678 169.02 440.407 164.205Z" fill="black"/>
<path d="M360.34 326.236C365.863 326.236 370.34 321.759 370.34 316.236C370.34 310.713 365.863 306.236 360.34 306.236C354.817 306.236 350.34 310.713 350.34 316.236C350.34 321.759 354.817 326.236 360.34 326.236Z" fill="black"/>
<path d="M162.281 396.392C162.281 374.336 144.337 356.392 122.281 356.392C105.358 356.392 90.1995 367.108 84.5605 383.059C82.7195 388.266 85.4485 393.979 90.6555 395.82C95.8645 397.661 101.576 394.932 103.416 389.725C106.235 381.75 113.817 376.392 122.281 376.392C133.309 376.392 142.281 385.364 142.281 396.392C142.281 407.42 133.309 416.392 122.281 416.392H36.1465C30.6245 416.392 26.1465 420.869 26.1465 426.392C26.1465 431.915 30.6245 436.392 36.1465 436.392H122.281C144.337 436.392 162.281 418.448 162.281 396.392Z" fill="black"/>
<path d="M445.853 356.392C428.929 356.392 413.77 367.109 408.132 383.059C406.292 388.266 409.021 393.979 414.229 395.82C419.433 397.661 425.149 394.932 426.99 389.724C429.808 381.75 437.388 376.392 445.853 376.392C456.881 376.392 465.853 385.364 465.853 396.392C465.853 407.42 456.881 416.392 445.853 416.392H359.718C354.195 416.392 349.718 420.869 349.718 426.392C349.718 431.915 354.195 436.392 359.718 436.392H445.853C467.909 436.392 485.853 418.448 485.853 396.392C485.853 374.336 467.909 356.392 445.853 356.392Z" fill="black"/>
<path d="M260.662 372.866C228.098 372.866 201.605 399.359 201.605 431.923C201.605 437.446 206.082 441.923 211.605 441.923C217.127 441.923 221.605 437.446 221.605 431.923C221.605 410.387 239.126 392.866 260.662 392.866C282.198 392.866 299.719 410.387 299.719 431.923C299.719 453.459 282.198 470.98 260.662 470.98H119.812C114.29 470.98 109.812 475.457 109.812 480.98C109.812 486.503 114.29 490.98 119.812 490.98H260.662C293.225 490.98 319.719 464.487 319.719 431.923C319.719 399.359 293.226 372.866 260.662 372.866Z" fill="black"/>
</g>
<defs>
<clipPath id="clip0">
<rect width="512" height="512" fill="white"/>
</clipPath>
</defs>
</svg>
