<svg width="512" height="512" viewBox="0 0 512 512" fill="none" xmlns="http://www.w3.org/2000/svg">
<path d="M430.696 189.5C430.696 110.739 366.848 46.8906 288.087 46.8906C231.686 46.8906 182.938 79.6356 159.801 127.149C146.68 121.404 132.196 118.196 116.956 118.196C57.886 118.196 10 166.082 10 225.152C10 284.222 57.886 332.108 116.956 332.108H430.695C470.075 332.108 501.999 300.184 501.999 260.804C501.999 221.424 470.076 189.5 430.696 189.5Z" fill="#A0C8FF"/>
<path d="M299.768 395.736C296.802 391.078 290.62 389.705 285.962 392.672L266 405.385V382.108C266 376.585 261.522 372.108 256 372.108C250.477 372.108 246 376.585 246 382.108V405.385L226.038 392.673C221.379 389.707 215.199 391.078 212.232 395.737C209.265 400.396 210.636 406.577 215.295 409.544L237.382 423.609L215.295 437.674C210.636 440.641 209.265 446.822 212.232 451.481C214.138 454.475 217.372 456.111 220.676 456.111C222.513 456.111 224.373 455.605 226.037 454.545L246 441.831V465.108C246 470.631 250.477 475.108 256 475.108C261.522 475.108 266 470.631 266 465.108V441.831L285.962 454.543C287.627 455.603 289.485 456.109 291.323 456.109C294.628 456.109 297.861 454.472 299.767 451.479C302.734 446.82 301.363 440.639 296.703 437.672L274.616 423.607L296.703 409.542C301.363 406.576 302.734 400.395 299.768 395.736Z" fill="black"/>
<path d="M149.768 395.736C146.801 391.078 140.619 389.705 135.962 392.672L116 405.385V382.108C116 376.585 111.522 372.108 106 372.108C100.478 372.108 95.9999 376.585 95.9999 382.108V405.385L76.0379 392.673C71.3779 389.707 65.1979 391.078 62.2319 395.737C59.2649 400.396 60.6359 406.577 65.2949 409.544L87.3819 423.609L65.2949 437.674C60.6359 440.641 59.2649 446.822 62.2319 451.481C64.1379 454.475 67.3719 456.111 70.6759 456.111C72.5129 456.111 74.3729 455.605 76.0369 454.545L95.9999 441.831V465.108C95.9999 470.631 100.478 475.108 106 475.108C111.522 475.108 116 470.631 116 465.108V441.831L135.962 454.543C137.627 455.603 139.485 456.109 141.323 456.109C144.628 456.109 147.861 454.472 149.767 451.479C152.734 446.82 151.363 440.639 146.704 437.672L124.617 423.607L146.704 409.542C151.363 406.576 152.734 400.395 149.768 395.736Z" fill="black"/>
<path d="M449.768 395.736C446.801 391.078 440.62 389.705 435.962 392.672L416 405.385V382.108C416 376.585 411.522 372.108 406 372.108C400.478 372.108 396 376.585 396 382.108V405.385L376.038 392.673C371.378 389.707 365.198 391.078 362.232 395.737C359.265 400.396 360.636 406.577 365.296 409.544L387.383 423.609L365.296 437.674C360.637 440.641 359.266 446.822 362.232 451.481C364.138 454.475 367.372 456.111 370.676 456.111C372.513 456.111 374.373 455.605 376.037 454.545L396 441.831V465.108C396 470.631 400.478 475.108 406 475.108C411.522 475.108 416 470.631 416 465.108V441.831L435.962 454.543C437.627 455.603 439.485 456.109 441.323 456.109C444.628 456.109 447.861 454.472 449.767 451.479C452.734 446.82 451.363 440.639 446.703 437.672L424.616 423.607L446.703 409.542C451.363 406.576 452.734 400.395 449.768 395.736Z" fill="black"/>
<path d="M440.407 180.077C435.525 100.299 369.071 36.8906 288.087 36.8906C258.921 36.8906 230.566 45.1486 206.09 60.7726C184.883 74.3096 167.402 92.7916 155.11 114.581C142.861 110.34 130.068 108.195 116.957 108.195C52.466 108.196 0 160.662 0 225.152C0 289.642 52.466 342.109 116.956 342.109H320.341C325.864 342.109 330.341 337.632 330.341 332.109C330.341 326.586 325.864 322.109 320.341 322.109H116.956C63.494 322.109 20 278.614 20 225.152C20 171.69 63.494 128.196 116.956 128.196C130.428 128.196 143.494 130.926 155.791 136.31C155.792 136.31 155.793 136.311 155.794 136.311C180.288 147.051 199.44 167.652 208.339 192.831C209.79 196.936 213.649 199.501 217.768 199.501C218.873 199.501 219.998 199.316 221.101 198.926C226.308 197.086 229.037 191.372 227.197 186.165C217.66 159.183 198.36 136.569 173.462 122.774C197.182 81.8946 240.248 56.8906 288.088 56.8906C358.07 56.8906 415.557 111.385 420.363 180.166C408.349 181.694 396.833 185.869 386.599 192.487C381.961 195.486 380.633 201.676 383.632 206.314C385.546 209.273 388.759 210.885 392.039 210.885C393.898 210.885 395.781 210.366 397.46 209.281C407.355 202.882 418.848 199.5 430.695 199.5C464.499 199.5 492 227.001 492 260.804C492 294.608 464.499 322.109 430.695 322.109H400.34C394.818 322.109 390.34 326.586 390.34 332.109C390.34 337.632 394.818 342.109 400.34 342.109H430.695C475.527 342.109 512 305.636 512 260.804C512 219.259 480.678 184.892 440.407 180.077Z" fill="black"/>
<path d="M360.34 342.108C365.863 342.108 370.34 337.631 370.34 332.108C370.34 326.586 365.863 322.108 360.34 322.108C354.817 322.108 350.34 326.586 350.34 332.108C350.34 337.631 354.817 342.108 360.34 342.108Z" fill="black"/>
</svg>
