<svg width="822" height="101" viewBox="0 0 822 101" fill="none" xmlns="http://www.w3.org/2000/svg">
<g filter="url(#filter0_i)">
<path d="M191.842 37.3422H122.366L119.791 39.2644V100.983H139.024V77.8386L140.86 76.1959H191.845C204.718 76.1959 210.753 72.7373 210.753 63.8632V49.6922C210.75 40.8033 204.718 37.3422 191.842 37.3422ZM191.842 60.1596C191.842 64.3406 189.072 65.209 183.037 65.209H141.071L139.022 63.2199V49.999L140.858 48.3217H183.037C189.072 48.3217 191.842 49.1801 191.842 53.3809V60.1596Z" fill="#E0E9F5"/>
</g>
<g filter="url(#filter1_i)">
<path d="M245.824 49.0169L262.374 73.2296L261.457 75.575H224.857L215.515 87.0517H269.995L273.771 89.3476L282.229 100.998H304.239L255.994 36.553" fill="#E0E9F5"/>
</g>
<g filter="url(#filter2_i)">
<path d="M464.68 88.4619V71.3321L466.659 69.6251H503.48V58.7173H445.122V100.995H531.206V90.1393H466.746" fill="#E0E9F5"/>
</g>
<g filter="url(#filter3_i)">
<path d="M532.115 37.3422H445.122V49.336H532.115V37.3422Z" fill="#E0E9F5"/>
</g>
<g filter="url(#filter4_i)">
<path d="M348.095 48.7001H418.179C417.099 39.8012 411.569 37.3322 397.541 37.3322H347.35C331.521 37.3322 326.472 40.4173 326.472 52.3789V85.9384C326.472 97.9124 331.521 100.997 347.35 100.997H397.541C411.775 100.997 417.225 98.328 417.597 89.0977H348.095L346.034 87.1605V49.9965" fill="#E0E9F5"/>
</g>
<g filter="url(#filter5_i)">
<path d="M73.0237 62.1413H22.0391L20.5378 60.4911V49.6007L22.0317 48.4478H90.7626L91.7015 46.1544C89.3603 40.1402 83.2979 37.3347 72.0401 37.3347H24.2961C8.47729 37.3347 3.42071 40.4198 3.42071 52.3814V59.4174C3.42071 71.3939 8.47729 74.474 24.2961 74.474H75.1667L76.7647 75.8743V87.2595L75.4615 89.0358H17.2724V88.9814H2.03083C2.03083 88.9814 0.286668 89.8547 0.353561 90.2629C1.65425 98.6299 7.36241 101 21.0283 101H73.0237C88.84 101 94.0477 97.9149 94.0477 85.9409V77.1756C94.0477 65.2214 88.84 62.1413 73.0237 62.1413Z" fill="#E0E9F5"/>
</g>
<g filter="url(#filter6_i)">
<path d="M586.838 37.08H558.22L556.667 40.0314L588.448 63.1655C594.468 59.6847 601.019 56.1568 608.144 52.6759" fill="#E0E9F5"/>
</g>
<g filter="url(#filter7_i)">
<path d="M612.479 80.659L640.413 101H669.38L670.579 98.3058L628.868 67.819C623.328 71.8788 617.856 76.1662 612.479 80.659Z" fill="#E0E9F5"/>
</g>
<g filter="url(#filter8_i)">
<path d="M582.579 100.953H556.686L554.499 97.5315C572.104 80.5575 650.844 7.79549 822 0C822 0 678.339 4.8391 582.579 100.953Z" fill="#FF7777"/>
</g>
<defs>
<filter id="filter0_i" x="119.791" y="37.3422" width="90.9614" height="64.6405" filterUnits="userSpaceOnUse" color-interpolation-filters="sRGB">
<feFlood flood-opacity="0" result="BackgroundImageFix"/>
<feBlend mode="normal" in="SourceGraphic" in2="BackgroundImageFix" result="shape"/>
<feColorMatrix in="SourceAlpha" type="matrix" values="0 0 0 0 0 0 0 0 0 0 0 0 0 0 0 0 0 0 127 0" result="hardAlpha"/>
<feOffset dy="1"/>
<feGaussianBlur stdDeviation="2"/>
<feComposite in2="hardAlpha" operator="arithmetic" k2="-1" k3="1"/>
<feColorMatrix type="matrix" values="0 0 0 0 0 0 0 0 0 0 0 0 0 0 0 0 0 0 0.25 0"/>
<feBlend mode="normal" in2="shape" result="effect1_innerShadow"/>
</filter>
<filter id="filter1_i" x="215.515" y="36.553" width="88.7243" height="65.4445" filterUnits="userSpaceOnUse" color-interpolation-filters="sRGB">
<feFlood flood-opacity="0" result="BackgroundImageFix"/>
<feBlend mode="normal" in="SourceGraphic" in2="BackgroundImageFix" result="shape"/>
<feColorMatrix in="SourceAlpha" type="matrix" values="0 0 0 0 0 0 0 0 0 0 0 0 0 0 0 0 0 0 127 0" result="hardAlpha"/>
<feOffset dy="1"/>
<feGaussianBlur stdDeviation="2"/>
<feComposite in2="hardAlpha" operator="arithmetic" k2="-1" k3="1"/>
<feColorMatrix type="matrix" values="0 0 0 0 0 0 0 0 0 0 0 0 0 0 0 0 0 0 0.25 0"/>
<feBlend mode="normal" in2="shape" result="effect1_innerShadow"/>
</filter>
<filter id="filter2_i" x="445.122" y="58.7173" width="86.0832" height="43.2777" filterUnits="userSpaceOnUse" color-interpolation-filters="sRGB">
<feFlood flood-opacity="0" result="BackgroundImageFix"/>
<feBlend mode="normal" in="SourceGraphic" in2="BackgroundImageFix" result="shape"/>
<feColorMatrix in="SourceAlpha" type="matrix" values="0 0 0 0 0 0 0 0 0 0 0 0 0 0 0 0 0 0 127 0" result="hardAlpha"/>
<feOffset dy="1"/>
<feGaussianBlur stdDeviation="2"/>
<feComposite in2="hardAlpha" operator="arithmetic" k2="-1" k3="1"/>
<feColorMatrix type="matrix" values="0 0 0 0 0 0 0 0 0 0 0 0 0 0 0 0 0 0 0.25 0"/>
<feBlend mode="normal" in2="shape" result="effect1_innerShadow"/>
</filter>
<filter id="filter3_i" x="445.122" y="37.3422" width="86.9925" height="12.9938" filterUnits="userSpaceOnUse" color-interpolation-filters="sRGB">
<feFlood flood-opacity="0" result="BackgroundImageFix"/>
<feBlend mode="normal" in="SourceGraphic" in2="BackgroundImageFix" result="shape"/>
<feColorMatrix in="SourceAlpha" type="matrix" values="0 0 0 0 0 0 0 0 0 0 0 0 0 0 0 0 0 0 127 0" result="hardAlpha"/>
<feOffset dy="1"/>
<feGaussianBlur stdDeviation="2"/>
<feComposite in2="hardAlpha" operator="arithmetic" k2="-1" k3="1"/>
<feColorMatrix type="matrix" values="0 0 0 0 0 0 0 0 0 0 0 0 0 0 0 0 0 0 0.25 0"/>
<feBlend mode="normal" in2="shape" result="effect1_innerShadow"/>
</filter>
<filter id="filter4_i" x="326.472" y="37.3322" width="91.7073" height="64.6653" filterUnits="userSpaceOnUse" color-interpolation-filters="sRGB">
<feFlood flood-opacity="0" result="BackgroundImageFix"/>
<feBlend mode="normal" in="SourceGraphic" in2="BackgroundImageFix" result="shape"/>
<feColorMatrix in="SourceAlpha" type="matrix" values="0 0 0 0 0 0 0 0 0 0 0 0 0 0 0 0 0 0 127 0" result="hardAlpha"/>
<feOffset dy="1"/>
<feGaussianBlur stdDeviation="2"/>
<feComposite in2="hardAlpha" operator="arithmetic" k2="-1" k3="1"/>
<feColorMatrix type="matrix" values="0 0 0 0 0 0 0 0 0 0 0 0 0 0 0 0 0 0 0.25 0"/>
<feBlend mode="normal" in2="shape" result="effect1_innerShadow"/>
</filter>
<filter id="filter5_i" x="0.351685" y="37.3347" width="93.696" height="64.6653" filterUnits="userSpaceOnUse" color-interpolation-filters="sRGB">
<feFlood flood-opacity="0" result="BackgroundImageFix"/>
<feBlend mode="normal" in="SourceGraphic" in2="BackgroundImageFix" result="shape"/>
<feColorMatrix in="SourceAlpha" type="matrix" values="0 0 0 0 0 0 0 0 0 0 0 0 0 0 0 0 0 0 127 0" result="hardAlpha"/>
<feOffset dy="1"/>
<feGaussianBlur stdDeviation="2"/>
<feComposite in2="hardAlpha" operator="arithmetic" k2="-1" k3="1"/>
<feColorMatrix type="matrix" values="0 0 0 0 0 0 0 0 0 0 0 0 0 0 0 0 0 0 0.25 0"/>
<feBlend mode="normal" in2="shape" result="effect1_innerShadow"/>
</filter>
<filter id="filter6_i" x="556.667" y="37.08" width="51.4775" height="27.0856" filterUnits="userSpaceOnUse" color-interpolation-filters="sRGB">
<feFlood flood-opacity="0" result="BackgroundImageFix"/>
<feBlend mode="normal" in="SourceGraphic" in2="BackgroundImageFix" result="shape"/>
<feColorMatrix in="SourceAlpha" type="matrix" values="0 0 0 0 0 0 0 0 0 0 0 0 0 0 0 0 0 0 127 0" result="hardAlpha"/>
<feOffset dy="1"/>
<feGaussianBlur stdDeviation="2"/>
<feComposite in2="hardAlpha" operator="arithmetic" k2="-1" k3="1"/>
<feColorMatrix type="matrix" values="0 0 0 0 0 0 0 0 0 0 0 0 0 0 0 0 0 0 0.25 0"/>
<feBlend mode="normal" in2="shape" result="effect1_innerShadow"/>
</filter>
<filter id="filter7_i" x="612.479" y="67.819" width="58.0997" height="34.1809" filterUnits="userSpaceOnUse" color-interpolation-filters="sRGB">
<feFlood flood-opacity="0" result="BackgroundImageFix"/>
<feBlend mode="normal" in="SourceGraphic" in2="BackgroundImageFix" result="shape"/>
<feColorMatrix in="SourceAlpha" type="matrix" values="0 0 0 0 0 0 0 0 0 0 0 0 0 0 0 0 0 0 127 0" result="hardAlpha"/>
<feOffset dy="1"/>
<feGaussianBlur stdDeviation="2"/>
<feComposite in2="hardAlpha" operator="arithmetic" k2="-1" k3="1"/>
<feColorMatrix type="matrix" values="0 0 0 0 0 0 0 0 0 0 0 0 0 0 0 0 0 0 0.25 0"/>
<feBlend mode="normal" in2="shape" result="effect1_innerShadow"/>
</filter>
<filter id="filter8_i" x="554.499" y="0" width="267.501" height="101.953" filterUnits="userSpaceOnUse" color-interpolation-filters="sRGB">
<feFlood flood-opacity="0" result="BackgroundImageFix"/>
<feBlend mode="normal" in="SourceGraphic" in2="BackgroundImageFix" result="shape"/>
<feColorMatrix in="SourceAlpha" type="matrix" values="0 0 0 0 0 0 0 0 0 0 0 0 0 0 0 0 0 0 127 0" result="hardAlpha"/>
<feOffset dy="1"/>
<feGaussianBlur stdDeviation="2"/>
<feComposite in2="hardAlpha" operator="arithmetic" k2="-1" k3="1"/>
<feColorMatrix type="matrix" values="0 0 0 0 0 0 0 0 0 0 0 0 0 0 0 0 0 0 0.25 0"/>
<feBlend mode="normal" in2="shape" result="effect1_innerShadow"/>
</filter>
</defs>
</svg>
