<svg width="512" height="512" viewBox="0 0 512 512" fill="none" xmlns="http://www.w3.org/2000/svg">
<g clip-path="url(#clip0)">
<path d="M368.361 368.416C430.447 306.33 430.447 205.67 368.361 143.584C306.275 81.4985 205.615 81.4985 143.529 143.584C81.4436 205.67 81.4436 306.33 143.529 368.416C205.615 430.502 306.275 430.502 368.361 368.416Z" fill="#FFCD69"/>
<path d="M256 425.005C162.811 425.005 86.9961 349.19 86.9961 256.001C86.9961 162.812 162.811 86.9961 256 86.9961C298.639 86.9961 339.358 102.921 370.658 131.838C374.714 135.586 374.965 141.912 371.217 145.968C367.469 150.025 361.141 150.274 357.086 146.527C329.493 121.035 293.593 106.996 256 106.996C173.838 106.996 106.996 173.839 106.996 256C106.996 338.161 173.838 405.005 256 405.005C338.162 405.005 405.004 338.162 405.004 256.001C405.004 240.132 402.525 224.516 397.636 209.588C395.917 204.339 398.779 198.691 404.027 196.972C409.276 195.255 414.924 198.115 416.643 203.363C422.191 220.304 425.004 238.013 425.004 256C425.004 349.19 349.189 425.005 256 425.005Z" fill="black"/>
<path d="M256 56.997C250.477 56.997 246 52.52 246 46.997V18.366C246 12.843 250.477 8.36597 256 8.36597C261.523 8.36597 266 12.843 266 18.366V46.997C266 52.52 261.523 56.997 256 56.997Z" fill="black"/>
<path d="M108.213 118.213C105.654 118.213 103.094 117.237 101.142 115.284L80.897 95.04C76.992 91.135 76.992 84.803 80.897 80.897C84.802 76.992 91.134 76.992 95.04 80.897L115.285 101.142C119.19 105.047 119.19 111.379 115.285 115.285C113.332 117.237 110.772 118.213 108.213 118.213Z" fill="black"/>
<path d="M46.9972 266H18.3652C12.8422 266 8.36523 261.523 8.36523 256C8.36523 250.477 12.8422 246 18.3652 246H46.9962C52.5192 246 56.9962 250.477 56.9962 256C56.9972 261.523 52.5202 266 46.9972 266Z" fill="black"/>
<path d="M87.967 434.034C85.408 434.034 82.848 433.058 80.896 431.105C76.991 427.2 76.991 420.868 80.896 416.963L101.141 396.718C105.046 392.813 111.378 392.813 115.284 396.718C119.189 400.623 119.189 406.955 115.284 410.86L95.038 431.105C93.085 433.058 90.526 434.034 87.967 434.034Z" fill="black"/>
<path d="M256 503.636C250.477 503.636 246 499.159 246 493.636V465.005C246 459.482 250.477 455.005 256 455.005C261.523 455.005 266 459.482 266 465.005V493.636C266 499.159 261.523 503.636 256 503.636Z" fill="black"/>
<path d="M424.033 434.034C421.474 434.034 418.914 433.058 416.962 431.105L396.717 410.86C392.812 406.955 392.812 400.623 396.717 396.718C400.622 392.813 406.954 392.813 410.86 396.718L431.105 416.963C435.01 420.868 435.01 427.2 431.105 431.105C429.152 433.058 426.592 434.034 424.033 434.034Z" fill="black"/>
<path d="M493.636 266H465.005C459.482 266 455.005 261.523 455.005 256C455.005 250.477 459.482 246 465.005 246H493.636C499.159 246 503.636 250.477 503.636 256C503.636 261.523 499.159 266 493.636 266Z" fill="black"/>
<path d="M403.788 118.212C401.229 118.212 398.669 117.236 396.717 115.283C392.812 111.378 392.812 105.046 396.717 101.14L416.962 80.8951C420.867 76.9901 427.199 76.9901 431.104 80.8951C435.009 84.8001 435.009 91.1321 431.104 95.0381L410.859 115.283C408.907 117.236 406.347 118.212 403.788 118.212Z" fill="black"/>
<path d="M335.978 72.9091C334.703 72.9091 333.407 72.6641 332.155 72.1451C327.053 70.0321 324.629 64.1821 326.743 59.0801L348.656 6.17708C350.77 1.07408 356.621 -1.34892 361.721 0.765077C366.824 2.87808 369.247 8.72808 367.133 13.8301L345.22 66.7331C343.626 70.5851 339.902 72.9091 335.978 72.9091Z" fill="black"/>
<path d="M176.022 72.909C172.098 72.909 168.375 70.584 166.779 66.733L144.867 13.83C142.753 8.72705 145.177 2.87805 150.279 0.765046C155.381 -1.35095 161.231 1.07505 163.344 6.17705L185.257 59.08C187.37 64.183 184.946 70.032 179.844 72.145C178.593 72.664 177.297 72.909 176.022 72.909Z" fill="black"/>
<path d="M62.9021 186.02C61.6271 186.02 60.3311 185.775 59.0791 185.256L6.1761 163.344C1.0731 161.231 -1.3499 155.381 0.7641 150.279C2.8781 145.176 8.7281 142.753 13.8291 144.867L66.7321 166.78C71.8351 168.893 74.2581 174.743 72.1441 179.845C70.5501 183.696 66.8261 186.02 62.9021 186.02Z" fill="black"/>
<path d="M10.007 367.898C6.08296 367.898 2.35996 365.573 0.763964 361.722C-1.35004 356.62 1.07396 350.77 6.17596 348.657L59.079 326.744C64.18 324.629 70.031 327.054 72.144 332.156C74.258 337.259 71.834 343.108 66.732 345.221L13.83 367.135C12.579 367.653 11.282 367.898 10.007 367.898Z" fill="black"/>
<path d="M154.102 512.001C152.827 512.001 151.531 511.756 150.279 511.237C145.176 509.124 142.753 503.274 144.867 498.172L166.78 445.269C168.894 440.167 174.744 437.744 179.845 439.857C184.948 441.97 187.371 447.82 185.257 452.922L163.344 505.825C161.749 509.676 158.025 512.001 154.102 512.001Z" fill="black"/>
<path d="M357.899 512.001C353.975 512.001 350.252 509.676 348.656 505.825L326.743 452.922C324.629 447.819 327.053 441.97 332.155 439.857C337.256 437.743 343.107 440.167 345.221 445.269L367.134 498.172C369.248 503.275 366.824 509.124 361.722 511.237C360.471 511.756 359.174 512.001 357.899 512.001Z" fill="black"/>
<path d="M501.994 367.898C500.719 367.898 499.423 367.653 498.171 367.134L445.268 345.221C440.165 343.108 437.742 337.258 439.856 332.156C441.97 327.053 447.82 324.631 452.921 326.744L505.824 348.657C510.927 350.77 513.35 356.62 511.236 361.722C509.642 365.574 505.918 367.898 501.994 367.898Z" fill="black"/>
<path d="M449.099 186.02C445.175 186.02 441.452 183.695 439.856 179.844C437.742 174.741 440.166 168.892 445.268 166.779L498.171 144.866C503.272 142.751 509.123 145.176 511.237 150.278C513.351 155.38 510.927 161.23 505.825 163.343L452.922 185.256C451.67 185.775 450.373 186.02 449.099 186.02Z" fill="black"/>
<path d="M389.807 180.094C395.329 180.094 399.807 175.617 399.807 170.094C399.807 164.571 395.329 160.094 389.807 160.094C384.284 160.094 379.807 164.571 379.807 170.094C379.807 175.617 384.284 180.094 389.807 180.094Z" fill="black"/>
</g>
<defs>
<clipPath id="clip0">
<rect width="512" height="512" fill="white"/>
</clipPath>
</defs>
</svg>
